Patient4_TMGait_0pt4_02_left_32_GRF.mot
version=1
nRows=71
nColumns=19
inDegrees=no
endheader
time	F1x	F1y	F1z	M1x	M1y	M1z	F2x	F2y	F2z	M2x	M2y	M2z	EC1x	EC1y	EC1z	EC2x	EC2y	EC2z
42.84	-5.819	-7.0199	-5.3572	2.2174	0.75785	-3.7411	-12.7842	794.8671	-74.8578	301.7739	85.976	871.492	-0.0592	0.0182	-0.0073	-0.0462	0.0165	0.9585
42.8534	-4.0374	-4.0443	-3.5898	1.272	0.44624	-1.7226	-12.0124	785.314	-70.2427	299.8122	80.8366	858.4526	-0.0592	0.0182	-0.0073	-0.0462	0.0165	0.9585
42.8667	-2.484	-1.47	-2.0605	0.4465	0.15871	0.041058	-10.668	777.5583	-65.9599	298.3887	75.6661	846.5355	-0.0592	0.0182	-0.0073	-0.0462	0.0165	0.9585
42.8801	-1.2665	0.53719	-0.8743	-0.20324	-0.072842	1.4313	-8.8475	772.4603	-62.284	297.7312	70.8032	836.8167	-0.0592	0.0182	-0.0073	-0.0462	0.0165	0.9585
42.8934	-0.413	1.9691	-0.040231	-0.67254	-0.24172	2.4432	-6.7012	770.2484	-59.3597	297.8973	66.4854	829.7339	-0.0592	0.0182	-0.0073	-0.0462	0.0165	0.9585
42.9068	0.11726	2.879	0.49201	-0.97655	-0.35724	3.0911	-4.3609	770.6127	-57.1958	298.7802	62.8057	825.1394	-0.0592	0.0182	-0.0073	-0.0462	0.0165	0.9585
42.9201	0.3853	3.3566	0.79461	-1.1391	-0.43873	3.4197	-1.9236	772.7854	-55.7342	300.119	59.7687	822.376	-0.0592	0.0182	-0.0073	-0.0462	0.0165	0.9585
42.9335	0.45526	3.4864	0.93675	-1.1819	-0.50357	3.4768	0.54443	775.6729	-54.8452	301.5373	57.288	820.4209	-0.0592	0.0182	-0.0073	-0.0462	0.0165	0.9585
42.9469	0.39981	3.3003	0.98101	-1.113	-0.56576	3.2503	2.9991	778.0369	-54.3697	302.604	55.2356	818.082	-0.0592	0.0182	-0.0073	-0.0462	0.0165	0.9585
42.9602	0.25543	2.8014	0.96957	-0.93435	-0.63516	2.7167	5.3987	778.7043	-54.1376	302.9054	53.4699	814.2224	-0.0592	0.0182	-0.0073	-0.0462	0.0165	0.9585
42.9736	0.074132	1.9549	0.94155	-0.63721	-0.7198	1.8009	7.7071	776.7967	-53.9987	302.1328	51.8672	807.9891	-0.0592	0.0182	-0.0073	-0.0462	0.0165	0.9585
42.9869	-0.11591	0.71762	0.90558	-0.20856	-0.80535	0.43848	9.9066	771.943	-53.838	300.1601	50.3305	799.0368	-0.0592	0.0182	-0.0073	-0.0462	0.0165	0.9585
43.0003	-0.27835	-0.92898	0.86871	0.35571	-0.87656	-1.4073	12.0063	764.2971	-53.591	297.0542	48.7973	787.5399	-0.0592	0.0182	-0.0073	-0.0462	0.0165	0.9585
43.0136	-0.36516	-2.9238	0.81925	1.0338	-0.8996	-3.6817	14.0308	754.4211	-53.2728	293.0306	47.2715	774.0752	-0.0592	0.0182	-0.0073	-0.0462	0.0165	0.9585
43.027	-0.32155	-5.0774	0.73482	1.7622	-0.82504	-6.1663	16.0295	743.1597	-52.9521	288.4083	45.7972	759.4821	-0.0592	0.0182	-0.0073	-0.0462	0.0165	0.9585
43.0404	-0.053204	-7.0077	0.57555	2.4087	-0.57344	-8.4228	18.0532	731.5197	-52.744	283.5652	44.4623	744.759	-0.0592	0.0182	-0.0073	-0.0462	0.0165	0.9585
43.0537	0.53249	-8.0457	0.29755	2.744	-0.059158	-9.6627	20.1412	720.5245	-52.7573	278.8886	43.3528	730.9208	-0.0592	0.0182	-0.0073	-0.0462	0.0165	0.9585
43.0671	1.557	-7.1939	-0.15857	2.4233	0.82678	-8.7202	22.31	711.0542	-53.0803	274.7176	42.5427	718.8435	-0.0592	0.0182	-0.0073	-0.0462	0.0165	0.9585
43.0804	3.1169	-3.0774	-0.84291	0.97409	2.1743	-3.9739	24.5305	703.6577	-53.7225	271.2699	42.048	709.0879	-0.0592	0.0182	-0.0073	-0.0462	0.0165	0.9585
43.0938	5.265	6.0291	-1.7932	-2.1974	4.0375	6.6102	26.7427	698.3725	-54.6242	268.5706	41.8288	701.7059	-0.0592	0.0182	-0.0073	-0.0462	0.0165	0.9585
43.1071	7.9493	22.0175	-2.993	-7.7387	6.3716	25.2635	28.8437	694.6499	-55.6634	266.4186	41.803	696.1726	-0.0592	0.0182	-0.0073	-0.0462	0.0165	0.9585
43.1205	10.9085	46.6112	-4.3554	-16.2312	8.9751	54.0323	30.6762	691.3509	-56.7072	264.384	41.9029	691.3915	-0.0592	0.0182	-0.0073	-0.0462	0.0165	0.9585
43.1339	13.6085	80.7611	-5.6501	-27.9806	11.3835	94.0566	32.0037	686.8467	-57.5747	261.8538	42.0442	685.8048	-0.0592	0.0182	-0.0073	-0.0462	0.0165	0.9585
43.1472	15.1146	123.742	-6.4712	-42.7068	12.7842	144.5198	32.5519	679.2311	-58.0457	258.1188	42.1176	677.5909	-0.0592	0.0182	-0.0073	-0.0462	0.0165	0.9585
43.1606	14.2267	172.1282	-6.2091	-59.1964	12.0498	201.4535	32.1213	666.6518	-57.869	252.5056	41.9628	664.9634	-0.0592	0.0182	-0.0073	-0.0462	0.0165	0.9585
43.1739	10.5196	219.5594	-4.1832	-75.233	8.2602	257.4207	30.6646	647.8404	-56.8508	244.5715	41.4227	646.6594	-0.0592	0.0182	-0.0073	-0.0462	0.0165	0.9585
43.1873	5.442	259.5524	-0.038053	-88.5919	1.5735	304.691	28.3846	622.6381	-54.9503	234.298	40.3987	622.4003	-0.0592	0.0182	-0.0073	-0.0462	0.0165	0.9585
43.2006	0.3719	289.7608	5.3162	-98.5147	-6.481	340.2671	25.7034	592.2154	-52.3555	222.1511	38.9221	593.1491	-0.0592	0.0182	-0.0073	-0.0462	0.0165	0.9585
43.214	-4.0197	311.9781	11.2795	-105.6551	-14.9348	366.1301	23.1376	558.38	-49.4214	208.8264	37.1396	560.4704	-0.0592	0.0182	-0.0073	-0.0462	0.0165	0.9585
43.2274	-7.6347	329.8449	17.0474	-111.3162	-22.851	386.5827	21.0847	522.776	-46.4031	194.9563	35.1361	525.8049	-0.0592	0.0182	-0.0073	-0.0462	0.0165	0.9585
43.2407	-10.6768	346.929	22.3278	-116.7505	-29.9378	405.9089	19.7666	486.477	-43.3468	180.9593	32.8658	490.1183	-0.0592	0.0182	-0.0073	-0.0462	0.0165	0.9585
43.2541	-13.3266	365.7471	26.7387	-122.8467	-35.8575	427.0456	19.1945	449.999	-40.1257	167.0362	30.1976	453.9099	-0.0592	0.0182	-0.0073	-0.0462	0.0165	0.9585
43.2674	-15.7103	387.6629	30.3651	-130.0614	-40.7378	451.6263	19.1989	413.3913	-36.6148	153.2029	27.0609	417.2762	-0.0592	0.0182	-0.0073	-0.0462	0.0165	0.9585
43.2808	-17.7572	413.2703	33.2377	-138.5774	-44.6256	480.3065	19.4827	376.4623	-32.7742	139.3717	23.51	380.1048	-0.0592	0.0182	-0.0073	-0.0462	0.0165	0.9585
43.2941	-19.391	442.6254	35.7333	-148.3672	-47.9088	513.1699	19.684	338.9847	-28.7192	125.4298	19.7705	342.2637	-0.0592	0.0182	-0.0073	-0.0462	0.0165	0.9585
43.3075	-20.5699	475.1294	38.1236	-159.1924	-50.8949	549.48	19.4483	300.8858	-24.638	111.3192	16.1403	303.7569	-0.0592	0.0182	-0.0073	-0.0462	0.0165	0.9585
43.3209	-21.4363	509.7878	40.8781	-170.6805	-54.1324	588.0827	18.4661	262.4386	-20.7368	97.1097	12.9244	264.9276	-0.0592	0.0182	-0.0073	-0.0462	0.0165	0.9585
43.3342	-22.134	545.7929	44.1091	-182.5507	-57.8031	627.9912	16.5885	224.3308	-17.1782	83.0317	10.3336	226.4922	-0.0592	0.0182	-0.0073	-0.0462	0.0165	0.9585
43.3476	-22.7033	582.7325	47.8437	-194.6721	-61.9404	668.6568	13.8234	187.5768	-14.0603	69.4452	8.4608	189.4864	-0.0592	0.0182	-0.0073	-0.0462	0.0165	0.9585
43.3609	-23.1704	620.269	51.7972	-206.9547	-66.2491	709.6226	10.3951	153.2796	-11.3992	56.7528	7.2445	155.004	-0.0592	0.0182	-0.0073	-0.0462	0.0165	0.9585
43.3743	-23.5003	657.6782	55.8128	-219.1732	-70.5362	750.0257	6.6767	122.3942	-9.1721	45.3071	6.5325	123.9698	-0.0592	0.0182	-0.0073	-0.0462	0.0165	0.9585
43.3876	-23.6999	693.8156	59.6635	-230.953	-74.5602	788.589	3.0521	95.521	-7.324	35.3325	6.1325	96.9609	-0.0592	0.0182	-0.0073	-0.0462	0.0165	0.9585
43.401	-23.7761	727.2347	63.2925	-241.8102	-78.2512	823.7231	-0.15445	72.7944	-5.7817	26.8891	5.8549	74.0783	-0.0592	0.0182	-0.0073	-0.0462	0.0165	0.9585
43.4144	-23.7138	756.559	66.5724	-251.2841	-81.4704	853.9336	-2.7529	54.0308	-4.4794	19.915	5.5624	55.1462	-0.0592	0.0182	-0.0073	-0.0462	0.0165	0.9585
43.4277	-23.4753	780.6951	69.4418	-259.0099	-84.1326	878.0759	-4.5973	38.8036	-3.3703	14.26	5.1606	39.7441	-0.0592	0.0182	-0.0073	-0.0462	0.0165	0.9585
43.4411	-23.0133	798.945	71.7725	-264.7592	-86.088	895.4408	-5.6181	26.6027	-2.4202	9.7409	4.5938	27.3823	-0.0592	0.0182	-0.0073	-0.0462	0.0165	0.9585
43.4544	-22.314	811.0396	73.5107	-268.4466	-87.2697	905.8158	-5.7902	16.9758	-1.6102	6.1904	3.8426	17.6239	-0.0592	0.0182	-0.0073	-0.0462	0.0165	0.9585
43.4678	-21.3493	817.1125	74.5804	-270.1249	-87.5978	909.4152	-5.1798	9.6228	-0.94258	3.4924	2.9447	10.1632	-0.0592	0.0182	-0.0073	-0.0462	0.0165	0.9585
43.4811	-20.151	817.6406	74.9878	-269.9553	-87.0971	906.8501	-4.1037	4.3835	-0.43077	1.5786	2.0312	4.8392	-0.0592	0.0182	-0.0073	-0.0462	0.0165	0.9585
43.4945	-18.7526	813.372	74.7584	-268.1846	-85.8218	899.0033	-2.9236	1.0111	-0.073192	0.35346	1.2309	1.3952	-0.0592	0.0182	-0.0073	-0.0462	0.0165	0.9585
43.5079	-17.1987	805.2481	73.9838	-265.1233	-83.8931	886.9562	-1.8566	-0.86745	0.14195	-0.3241	0.60792	-0.54024	-0.0592	0.0182	-0.0073	-0.0462	0.0165	0.9585
43.5212	-15.526	794.3886	72.7699	-261.1445	-81.4487	871.9703	-0.99103	-1.6738	0.2447	-0.60792	0.16563	-1.3874	-0.0592	0.0182	-0.0073	-0.0462	0.0165	0.9585
43.5346	-13.7467	781.9709	71.2557	-256.6427	-78.649	855.3243	-0.36487	-1.7853	0.26401	-0.63498	-0.10944	-1.5209	-0.0592	0.0182	-0.0073	-0.0462	0.0165	0.9585
43.5479	-11.8742	769.1266	69.5748	-251.9976	-75.6489	838.2362	0.042467	-1.4958	0.23202	-0.51299	-0.25097	-1.2456	-0.0592	0.0182	-0.0073	-0.0462	0.0165	0.9585
43.5613	-9.9088	756.8754	67.832	-247.5545	-72.568	821.7792	0.27587	-1.0188	0.17022	-0.32245	-0.28831	-0.78778	-0.0592	0.0182	-0.0073	-0.0462	0.0165	0.9585
43.5746	-7.8706	746.1156	66.1197	-243.6159	-69.5122	806.8798	0.36654	-0.51073	0.10007	-0.12203	-0.25467	-0.30975	-0.0592	0.0182	-0.0073	-0.0462	0.0165	0.9585
43.588	-5.7653	737.5687	64.4898	-240.4232	-66.5422	794.2558	0.35707	-0.083588	0.032812	0.046787	-0.17787	0.074756	-0.0592	0.0182	-0.0073	-0.0462	0.0165	0.9585
43.6014	-3.6031	731.7247	63.0211	-238.1345	-63.7429	784.3842	0.26852	0.20915	-0.024103	0.16029	-0.07459	0.32305	-0.0592	0.0182	-0.0073	-0.0462	0.0165	0.9585
43.6147	-1.3903	728.8224	61.772	-236.8191	-61.1799	777.49	0.12366	0.31315	-0.071952	0.19724	0.044942	0.37935	-0.0592	0.0182	-0.0073	-0.0462	0.0165	0.9585
43.6281	0.88118	728.831	60.8309	-236.4517	-58.9384	773.5297	-0.071084	0.17957	-0.11346	0.13912	0.17496	0.18848	-0.0592	0.0182	-0.0073	-0.0462	0.0165	0.9585
43.6414	3.2174	731.4663	60.2393	-236.9235	-57.0542	772.2135	-0.29662	-0.22961	-0.15436	-0.029094	0.31345	-0.29843	-0.0592	0.0182	-0.0073	-0.0462	0.0165	0.9585
43.6548	5.6133	736.2282	60.0417	-238.0538	-55.5695	773.0457	-0.52554	-0.95722	-0.19472	-0.32299	0.45246	-1.1405	-0.0592	0.0182	-0.0073	-0.0462	0.0165	0.9585
43.6681	8.0601	742.4343	60.2302	-239.6027	-54.4784	775.353	-0.73964	-2.0284	-0.23164	-0.75144	0.58094	-2.3743	-0.0592	0.0182	-0.0073	-0.0462	0.0165	0.9585
43.6815	10.5341	749.2451	60.7809	-241.2823	-53.7661	778.3207	-0.87046	-3.42	-0.25812	-1.3057	0.66621	-3.9866	-0.0592	0.0182	-0.0073	-0.0462	0.0165	0.9585
43.6949	12.9938	755.7168	61.6282	-242.7776	-53.384	781.0358	-0.83401	-5.005	-0.25935	-1.9393	0.65511	-5.8334	-0.0592	0.0182	-0.0073	-0.0462	0.0165	0.9585
43.7082	15.378	760.8454	62.7067	-243.7567	-53.2858	782.5379	-0.51375	-6.5385	-0.21161	-2.5543	0.47281	-7.6281	-0.0592	0.0182	-0.0073	-0.0462	0.0165	0.9585
43.7216	17.6148	763.6778	63.9254	-243.9103	-53.4053	781.9179	0.24867	-7.5608	-0.090323	-2.969	0.031649	-8.8263	-0.0592	0.0182	-0.0073	-0.0462	0.0165	0.9585
43.7349	19.6424	763.5476	65.2024	-243.0311	-53.6877	778.5554	1.6399	-7.3525	0.13646	-2.898	-0.77598	-8.5773	-0.0592	0.0182	-0.0073	-0.0462	0.0165	0.9585
43.7483	21.4268	760.2824	66.4533	-241.0792	-54.0638	772.3158	3.8365	-4.9323	0.50592	-1.9469	-2.0636	-5.7277	-0.0592	0.0182	-0.0073	-0.0462	0.0165	0.9585
43.7616	22.9878	754.2194	67.6393	-238.1838	-54.4898	763.5582	6.9466	0.96806	1.0512	0.39075	-3.9087	1.2201	-0.0592	0.0182	-0.0073	-0.0462	0.0165	0.9585
43.775	24.3718	746.0149	68.7428	-234.5791	-54.9301	752.9399	10.955	11.7965	1.7871	4.6921	-6.3113	13.9773	-0.0592	0.0182	-0.0073	-0.0462	0.0165	0.9585
